<svg width="187" height="28" viewBox="0 0 187 28" fill="none" xmlns="http://www.w3.org/2000/svg">
<g clip-path="url(#clip0_110_361)">
<path fill-rule="evenodd" clip-rule="evenodd" d="M19.8398 6.78553C17.8212 6.78553 16.0082 7.92026 15.0869 9.57397L16.6078 5.41005C17.2129 3.08585 19.3152 1.37103 21.8155 1.37103H35.5958C35.5958 4.36137 33.186 6.78553 30.213 6.78553H20.7225C20.2545 6.78553 20.3232 6.78553 19.8398 6.78553Z" stroke="#D2AA44" stroke-width="2"/>
<path fill-rule="evenodd" clip-rule="evenodd" d="M12.1257 16.1527C8.30389 16.1527 5.20869 17.3167 4.93957 21.1881C4.93957 24.9096 7.92215 26.3852 10.4521 25.6271C4.12712 27.2177 1.656 24.1661 1.97897 19.9969C2.44371 13.9977 8.97673 10.9006 14.0905 10.7382C18.2353 10.7382 20.4961 10.7382 21.8688 10.7382H27.198C27.198 13.7285 24.7879 16.1527 21.815 16.1527H12.1257Z" stroke="#D2AA44" stroke-width="2"/>
<path fill-rule="evenodd" clip-rule="evenodd" d="M19.8395 6.78558C17.8302 6.78558 16.0247 7.90982 15.0994 9.5511L14.6699 10.7382H20.3983L21.8285 6.78558H20.7222H19.8395Z" stroke="#D2AA44" stroke-width="2"/>
<path d="M44.73 8.6553C44.73 8.40562 44.8251 8.19756 45.0153 8.03111C45.2056 7.85277 45.4374 7.7636 45.7109 7.7636H53.7005C53.7005 8.33429 53.5935 8.75636 53.3795 9.02981C53.1655 9.29137 52.8266 9.42215 52.3629 9.42215H46.6561V13.0246H51.5604C51.5604 13.5953 51.4534 14.0174 51.2394 14.2908C51.0254 14.5524 50.6865 14.6832 50.2229 14.6832H46.6561V18.9455C46.6561 19.4448 46.4955 19.8134 46.1745 20.0512C45.8654 20.2889 45.3839 20.4078 44.73 20.4078V8.6553Z" fill="white"/>
<path d="M57.9185 20.2473C57.6451 20.2473 57.4073 20.1522 57.2051 19.962C57.0149 19.7599 56.9198 19.5221 56.9198 19.2486V9.11898C56.9198 8.10839 57.5618 7.6031 58.8459 7.6031V18.5709H64.0891C64.5528 18.5709 64.9094 18.7136 65.1591 18.999C65.4088 19.2843 65.5336 19.7004 65.5336 20.2473H57.9185Z" fill="white"/>
<path d="M79.4882 8.6553C79.4882 8.40562 79.5833 8.19756 79.7735 8.03111C79.9638 7.85277 80.1956 7.7636 80.4691 7.7636H88.4587C88.4587 8.33429 88.3517 8.75636 88.1377 9.02981C87.9237 9.29137 87.5848 9.42215 87.1211 9.42215H81.4143V13.0246H86.3186C86.3186 13.5953 86.2116 14.0174 85.9976 14.2908C85.7836 14.5524 85.4447 14.6832 84.9811 14.6832H81.4143V18.9455C81.4143 19.4448 81.2537 19.8134 80.9327 20.0512C80.6236 20.2889 80.1421 20.4078 79.4882 20.4078V8.6553Z" fill="white"/>
<path d="M105.07 8.6553C105.07 8.40562 105.165 8.19756 105.355 8.03111C105.545 7.85277 105.777 7.7636 106.05 7.7636H114.04C114.04 8.33429 113.933 8.75636 113.719 9.02981C113.505 9.29137 113.166 9.42215 112.702 9.42215H106.996V13.0246H111.9C111.9 13.5953 111.793 14.0174 111.579 14.2908C111.365 14.5524 111.026 14.6832 110.562 14.6832H106.996V18.9455C106.996 19.4448 106.835 19.8134 106.514 20.0512C106.205 20.2889 105.723 20.4078 105.07 20.4078V8.6553Z" fill="#D2AA44"/>
<path d="M117.259 8.6553C117.259 8.39373 117.349 8.17973 117.527 8.01328C117.717 7.84683 117.955 7.7636 118.24 7.7636H123.109C124.298 7.7636 125.237 8.10245 125.927 8.78013C126.628 9.44593 126.979 10.3555 126.979 11.5087C126.979 12.9117 126.378 13.8985 125.178 14.4691V14.5226C125.701 14.7604 126.099 15.1052 126.373 15.557C126.658 16.0088 126.801 16.5557 126.801 17.1977V18.892C126.801 19.3794 126.634 19.7539 126.301 20.0155C125.98 20.2771 125.511 20.4078 124.892 20.4078V17.3047C124.892 15.9494 124.304 15.2717 123.127 15.2717H119.15V18.892C119.15 19.9025 118.52 20.4078 117.259 20.4078V8.6553ZM123.02 13.631C123.65 13.631 124.143 13.4407 124.5 13.0603C124.869 12.6798 125.053 12.1567 125.053 11.4909C125.053 10.8132 124.88 10.302 124.536 9.95717C124.191 9.60049 123.686 9.42215 123.02 9.42215H119.15V13.631H123.02Z" fill="#D2AA44"/>
<path d="M130.581 8.6553C130.581 8.40562 130.676 8.19756 130.867 8.03111C131.057 7.85277 131.289 7.7636 131.562 7.7636H139.48C139.48 8.33429 139.367 8.75636 139.142 9.02981C138.928 9.29137 138.589 9.42215 138.125 9.42215H132.507V13.1138H137.412C137.412 13.6845 137.305 14.1065 137.091 14.38C136.877 14.6415 136.538 14.7723 136.074 14.7723H132.507V18.5888H138.5C138.951 18.5888 139.284 18.7255 139.498 18.999C139.724 19.2605 139.837 19.6766 139.837 20.2473H131.562C131.289 20.2473 131.057 20.1641 130.867 19.9977C130.676 19.8193 130.581 19.6053 130.581 19.3556V8.6553Z" fill="#D2AA44"/>
<path d="M143.546 9.11898C143.546 8.63152 143.712 8.25701 144.045 7.99544C144.378 7.73388 144.854 7.6031 145.472 7.6031V18.892C145.472 19.3794 145.305 19.7539 144.972 20.0155C144.64 20.2771 144.164 20.4078 143.546 20.4078V9.11898Z" fill="#D2AA44"/>
<path d="M154.679 20.4078C153.657 20.4078 152.741 20.2176 151.933 19.8371C151.136 19.4448 150.512 18.9038 150.06 18.2143C149.62 17.5247 149.4 16.74 149.4 15.8602V12.1151C149.4 11.2353 149.62 10.4565 150.06 9.77883C150.5 9.08925 151.112 8.55424 151.897 8.17378C152.682 7.79332 153.579 7.6031 154.59 7.6031C155.6 7.6031 156.498 7.7636 157.283 8.08461C158.079 8.39373 158.698 8.82769 159.138 9.38649C159.577 9.94528 159.797 10.5814 159.797 11.2947C159.797 11.6752 159.667 11.9783 159.405 12.2042C159.155 12.4182 158.816 12.5253 158.388 12.5253C158.234 12.5253 158.067 12.5074 157.889 12.4718C157.913 12.2815 157.925 12.0378 157.925 11.7406C157.925 11.2531 157.782 10.8251 157.497 10.4565C157.211 10.0761 156.813 9.78478 156.302 9.58266C155.803 9.36865 155.232 9.26165 154.59 9.26165C153.627 9.26165 152.836 9.52916 152.218 10.0642C151.612 10.5873 151.308 11.2709 151.308 12.1151V15.8602C151.308 16.419 151.451 16.9183 151.736 17.3582C152.022 17.7981 152.42 18.1429 152.931 18.3926C153.443 18.6304 154.025 18.7493 154.679 18.7493C155.654 18.7493 156.445 18.5174 157.051 18.0538C157.669 17.5782 157.978 16.9599 157.978 16.199V15.3608H155.963C155.571 15.3608 155.25 15.2182 155 14.9328C154.75 14.6356 154.626 14.2551 154.626 13.7915H158.977C159.239 13.7915 159.453 13.8747 159.619 14.0411C159.797 14.2076 159.887 14.4216 159.887 14.6832V16.2347C159.887 17.0432 159.667 17.7684 159.227 18.4104C158.787 19.0406 158.169 19.534 157.372 19.8907C156.587 20.2354 155.69 20.4078 154.679 20.4078Z" fill="#D2AA44"/>
<path d="M163.389 9.11898C163.389 8.63152 163.555 8.25701 163.888 7.99544C164.221 7.73388 164.697 7.6031 165.315 7.6031V13.1138H171.307V9.11898C171.307 8.61963 171.468 8.24512 171.789 7.99544C172.122 7.73388 172.597 7.6031 173.215 7.6031V18.892C173.215 19.3794 173.049 19.7539 172.716 20.0155C172.395 20.2771 171.925 20.4078 171.307 20.4078V14.7902H165.315V18.892C165.315 19.3794 165.148 19.7539 164.816 20.0155C164.483 20.2771 164.007 20.4078 163.389 20.4078V9.11898Z" fill="#D2AA44"/>
<path d="M180.752 9.43999H176.418C176.418 8.3224 176.935 7.7636 177.97 7.7636H186.976C186.976 8.31051 186.845 8.72663 186.584 9.01197C186.322 9.29732 185.936 9.43999 185.424 9.43999H182.66V18.892C182.66 19.3794 182.494 19.7539 182.161 20.0155C181.84 20.2771 181.37 20.4078 180.752 20.4078V9.43999Z" fill="#D2AA44"/>
<path d="M69.7769 15.8747L65.3084 7.82781C65.4165 7.76739 65.5787 7.71302 65.7949 7.6647C66.0111 7.61638 66.2093 7.59221 66.3895 7.59221C66.7859 7.59221 67.1162 7.67677 67.3805 7.84594C67.6568 8.003 67.891 8.25673 68.0832 8.60714L70.324 12.8187L69.2586 14.9413L69.7769 15.8747V16.2749L73.6507 8.60714C73.9871 7.93051 74.5517 7.59221 75.3444 7.59221C75.5246 7.59221 75.7228 7.61638 75.939 7.6647C76.1553 7.71302 76.3174 7.76739 76.4255 7.82781L71.9571 15.8747V18.9376C71.9571 19.4694 71.7709 19.8801 71.3985 20.1701C71.0261 20.46 70.4856 20.605 69.7769 20.605V15.8747Z" fill="white"/>
<path d="M91.843 20.4078C91.3622 20.4078 90.9478 20.2266 90.5997 19.8641L94.9781 13.702L90.8159 7.79374C90.9478 7.67293 91.1161 7.57626 91.3204 7.50376C91.5244 7.43127 91.7406 7.39502 91.9691 7.39502C92.2812 7.39502 92.5695 7.44939 92.834 7.55813C93.11 7.66688 93.3082 7.81187 93.4286 7.9931L96.0592 11.9259L95.5262 11.1293L94.3486 12.8085L94.9781 13.702L98.9241 7.9931C99.0559 7.81187 99.2541 7.66688 99.5186 7.55813C99.7828 7.44939 100.077 7.39502 100.402 7.39502C100.618 7.39502 100.828 7.43127 101.032 7.50376C101.236 7.57626 101.404 7.67293 101.537 7.79374L97.3925 13.702L101.753 19.8641C101.429 20.2266 101.014 20.4078 100.51 20.4078C100.245 20.4078 99.999 20.3535 99.7709 20.2447C99.5547 20.124 99.3745 19.9609 99.2304 19.7554L96.1853 15.3151L93.1222 19.7554C92.9781 19.9486 92.7918 20.1059 92.5637 20.2266C92.3475 20.3473 92.1071 20.4078 91.843 20.4078Z" fill="white"/>
</g>
<defs>
<clipPath id="clip0_110_361">
<rect width="186.246" height="28" fill="white" transform="translate(0.72998)"/>
</clipPath>
</defs>
</svg>
